<?xml version="1.0" encoding="UTF-8" standalone="no"?>
<!-- Generator: Adobe Illustrator 19.0.0, SVG Export Plug-In . SVG Version: 6.00 Build 0)  -->

<svg
   xmlns:dc="http://purl.org/dc/elements/1.1/"
   xmlns:cc="http://creativecommons.org/ns#"
   xmlns:rdf="http://www.w3.org/1999/02/22-rdf-syntax-ns#"
   xmlns:svg="http://www.w3.org/2000/svg"
   xmlns="http://www.w3.org/2000/svg"
   xmlns:xlink="http://www.w3.org/1999/xlink"
   xmlns:sodipodi="http://sodipodi.sourceforge.net/DTD/sodipodi-0.dtd"
   xmlns:inkscape="http://www.inkscape.org/namespaces/inkscape"
   version="1.1"
   id="Layer_1"
   x="0px"
   y="0px"
   viewBox="0 0 345.13 345.13"
   style="enable-background:new 0 0 345.13 345.13;"
   xml:space="preserve"
   sodipodi:docname="gota.svg"
   inkscape:version="0.92.3 (2405546, 2018-03-11)"><metadata
   id="metadata43"><rdf:RDF><cc:Work
       rdf:about=""><dc:format>image/svg+xml</dc:format><dc:type
         rdf:resource="http://purl.org/dc/dcmitype/StillImage" /></cc:Work></rdf:RDF></metadata><defs
   id="defs41"><pattern
     y="0"
     x="0"
     height="6"
     width="6"
     patternUnits="userSpaceOnUse"
     id="EMFhbasepattern" /><linearGradient
     id="linearGradient983"
     inkscape:collect="always"><stop
       id="stop979"
       offset="0"
       style="stop-color:#c627e6;stop-opacity:1" /><stop
       id="stop981"
       offset="1"
       style="stop-color:#25d2c1;stop-opacity:1" /></linearGradient><linearGradient
     inkscape:collect="always"
     xlink:href="#linearGradient983"
     id="linearGradient899"
     x1="54.049999"
     y1="172.565"
     x2="291.07938"
     y2="172.565"
     gradientUnits="userSpaceOnUse" /><linearGradient
     inkscape:collect="always"
     xlink:href="#linearGradient983"
     id="linearGradient901"
     gradientUnits="userSpaceOnUse"
     x1="39.425854"
     y1="137.46704"
     x2="301.31628"
     y2="204.73813" /></defs><sodipodi:namedview
   pagecolor="#ffffff"
   bordercolor="#666666"
   borderopacity="1"
   objecttolerance="10"
   gridtolerance="10"
   guidetolerance="10"
   inkscape:pageopacity="0"
   inkscape:pageshadow="2"
   inkscape:window-width="1920"
   inkscape:window-height="1018"
   id="namedview39"
   showgrid="false"
   inkscape:zoom="0.6838003"
   inkscape:cx="172.565"
   inkscape:cy="172.565"
   inkscape:window-x="-8"
   inkscape:window-y="-8"
   inkscape:window-maximized="1"
   inkscape:current-layer="Layer_1" />
<g
   id="g6"
   style="fill-opacity:1.0;fill:url(#linearGradient899)">
	<path
   style="fill:url(#linearGradient899);fill-opacity:1.0"
   d="M264.25,301.7c-2.45,3.01-5.08,5.91-7.88,8.71c-23.14,23.14-53.47,34.72-83.8,34.72   s-60.66-11.58-83.81-34.72c-22.86-22.86-34.71-53.2-34.71-83.84c0-21.31,5.74-42.77,17.5-61.94l21.16-34.48L172.57,0l31.67,51.62   l24.28,39.56l45.06,73.45C300.18,207.99,295.971,263.03,264.25,301.7z"
   id="path2" />
	<path
   style="fill:url(#linearGradient901);fill-opacity:1"
   d="M264.25,301.7L92.71,130.15L172.57,0l31.67,51.62l24.28,39.56l45.06,73.45   C300.18,207.99,295.971,263.03,264.25,301.7z"
   id="path4" />
</g>
<g
   id="g8">
</g>
<g
   id="g10">
</g>
<g
   id="g12">
</g>
<g
   id="g14">
</g>
<g
   id="g16">
</g>
<g
   id="g18">
</g>
<g
   id="g20">
</g>
<g
   id="g22">
</g>
<g
   id="g24">
</g>
<g
   id="g26">
</g>
<g
   id="g28">
</g>
<g
   id="g30">
</g>
<g
   id="g32">
</g>
<g
   id="g34">
</g>
<g
   id="g36">
</g>
<g
   style="fill-opacity:1.0;fill:url(#linearGradient899)"
   id="g929">
	<path
   id="path925"
   d="M264.25,301.7c-2.45,3.01-5.08,5.91-7.88,8.71c-23.14,23.14-53.47,34.72-83.8,34.72   s-60.66-11.58-83.81-34.72c-22.86-22.86-34.71-53.2-34.71-83.84c0-21.31,5.74-42.77,17.5-61.94l21.16-34.48L172.57,0l31.67,51.62   l24.28,39.56l45.06,73.45C300.18,207.99,295.971,263.03,264.25,301.7z"
   style="fill:url(#linearGradient899);fill-opacity:1.0" />
	<path
   id="path927"
   d="M264.25,301.7L92.71,130.15L172.57,0l31.67,51.62l24.28,39.56l45.06,73.45   C300.18,207.99,295.971,263.03,264.25,301.7z"
   style="fill:url(#linearGradient901);fill-opacity:1" />
</g></svg>