<?xml version="1.0" encoding="UTF-8" standalone="no"?>
<!-- Created with Inkscape (http://www.inkscape.org/) -->

<svg
   xmlns:dc="http://purl.org/dc/elements/1.1/"
   xmlns:cc="http://creativecommons.org/ns#"
   xmlns:rdf="http://www.w3.org/1999/02/22-rdf-syntax-ns#"
   xmlns:svg="http://www.w3.org/2000/svg"
   xmlns="http://www.w3.org/2000/svg"
   xmlns:xlink="http://www.w3.org/1999/xlink"
   xmlns:sodipodi="http://sodipodi.sourceforge.net/DTD/sodipodi-0.dtd"
   xmlns:inkscape="http://www.inkscape.org/namespaces/inkscape"
   width="512"
   height="512"
   viewBox="0 0 135.46666 135.46667"
   version="1.1"
   id="svg972"
   inkscape:version="0.92.3 (2405546, 2018-03-11)"
   sodipodi:docname="favicon.svg">
  <defs
     id="defs966">
    <linearGradient
       id="linearGradient983"
       inkscape:collect="always">
      <stop
         id="stop979"
         offset="0"
         style="stop-color:#c627e6;stop-opacity:1" />
      <stop
         id="stop981"
         offset="1"
         style="stop-color:#25d2c1;stop-opacity:1" />
    </linearGradient>
    <linearGradient
       inkscape:collect="always"
       xlink:href="#linearGradient983"
       id="linearGradient1621"
       x1="2.7270507e-006"
       y1="229.26665"
       x2="135.46666"
       y2="229.26665"
       gradientUnits="userSpaceOnUse" />
  </defs>
  <sodipodi:namedview
     id="base"
     pagecolor="#ffffff"
     bordercolor="#666666"
     borderopacity="1.0"
     inkscape:pageopacity="0.0"
     inkscape:pageshadow="2"
     inkscape:zoom="0.49497475"
     inkscape:cx="74.505008"
     inkscape:cy="275.47114"
     inkscape:document-units="px"
     inkscape:current-layer="layer1"
     showgrid="false"
     units="px"
     inkscape:window-width="1920"
     inkscape:window-height="1018"
     inkscape:window-x="-8"
     inkscape:window-y="-8"
     inkscape:window-maximized="1" />
  <metadata
     id="metadata969">
    <rdf:RDF>
      <cc:Work
         rdf:about="">
        <dc:format>image/svg+xml</dc:format>
        <dc:type
           rdf:resource="http://purl.org/dc/dcmitype/StillImage" />
        <dc:title></dc:title>
      </cc:Work>
    </rdf:RDF>
  </metadata>
  <g
     inkscape:label="Camada 1"
     inkscape:groupmode="layer"
     id="layer1"
     transform="translate(0,-161.53332)">
    <rect
       style="opacity:1;fill:url(#linearGradient1621);fill-opacity:1.0;stroke:none;stroke-width:0.86003333;stroke-linecap:round;stroke-linejoin:round;stroke-miterlimit:4;stroke-dasharray:none;stroke-dashoffset:30;stroke-opacity:1;paint-order:normal"
       id="rect1583"
       width="135.46666"
       height="135.46666"
       x="2.7270507e-006"
       y="161.53333"
       ry="20.378918" />
    <g
       aria-label="%"
       transform="matrix(2.1442344,0,0,2.0695745,-1992.2238,-1029.7814)"
       style="font-style:normal;font-weight:normal;font-size:82.53128815px;line-height:1.25;font-family:sans-serif;text-align:center;letter-spacing:0px;word-spacing:0px;text-anchor:middle;fill:#ffffff;fill-opacity:1;stroke:none"
       id="flowRoot926-0">
      <path
         d="m 945.05618,604.81199 q -3.54885,0 -6.51997,-1.73316 -2.97113,-1.73316 -4.70429,-4.70429 -1.73315,-3.05365 -1.73315,-6.6025 0,-3.54884 1.73315,-6.51997 1.73316,-2.97113 4.70429,-4.70428 2.97112,-1.81569 6.51997,-1.81569 3.54885,0 6.51997,1.81569 2.97113,1.73315 4.70429,4.70428 1.73315,2.97113 1.73315,6.51997 0,3.54885 -1.73315,6.6025 -1.73316,2.97113 -4.70429,4.70429 -2.97112,1.73316 -6.51997,1.73316 z m -3.30125,32.43479 q -0.57772,0 -0.74278,-0.33012 -0.16507,-0.33013 0.0825,-0.82532 l 30.53657,-55.95621 q 0.41266,-0.66025 1.23797,-0.66025 h 6.18985 q 0.57772,0 0.74278,0.33012 0.16506,0.33013 -0.0825,0.82532 l -30.53658,55.95621 q -0.41265,0.66025 -1.23797,0.66025 z m 3.30125,-38.87224 q 2.641,0 4.45669,-1.89821 1.89822,-1.89822 1.89822,-4.70429 0,-2.72353 -1.89822,-4.62175 -1.81569,-1.98075 -4.45669,-1.98075 -2.641,0 -4.53922,1.98075 -1.89822,1.89822 -1.89822,4.62175 0,2.80607 1.89822,4.70429 1.89822,1.89821 4.53922,1.89821 z m 31.27936,39.61502 q -3.54885,0 -6.51997,-1.73315 -2.97113,-1.81569 -4.70429,-4.78682 -1.73315,-3.05366 -1.73315,-6.6025 0,-3.54885 1.73315,-6.51997 1.73316,-2.97113 4.70429,-4.70429 2.97112,-1.73315 6.51997,-1.73315 3.54884,0 6.51997,1.73315 2.97113,1.73316 4.70428,4.70429 1.73316,2.97112 1.73316,6.51997 0,3.54884 -1.73316,6.6025 -1.73315,2.97113 -4.70428,4.78682 -2.97113,1.73315 -6.51997,1.73315 z m 0,-6.43744 q 2.641,0 4.45669,-1.89822 1.89822,-1.98075 1.89822,-4.78681 0,-2.72353 -1.89822,-4.62175 -1.81569,-1.89822 -4.45669,-1.89822 -2.641,0 -4.53922,1.89822 -1.81569,1.89822 -1.81569,4.62175 0,2.80606 1.81569,4.78681 1.89822,1.89822 4.53922,1.89822 z"
         style="font-style:normal;font-variant:normal;font-weight:bold;font-stretch:normal;font-family:'Barlow Semi Condensed';-inkscape-font-specification:'Barlow Semi Condensed, Bold';text-align:start;text-anchor:start;fill:#ffffff;fill-opacity:1"
         id="path1570"
         inkscape:connector-curvature="0" />
    </g>
  </g>
</svg>
