<?xml version="1.0" encoding="UTF-8" standalone="no"?>
<svg
   xmlns:dc="http://purl.org/dc/elements/1.1/"
   xmlns:cc="http://creativecommons.org/ns#"
   xmlns:rdf="http://www.w3.org/1999/02/22-rdf-syntax-ns#"
   xmlns:svg="http://www.w3.org/2000/svg"
   xmlns="http://www.w3.org/2000/svg"
   xmlns:sodipodi="http://sodipodi.sourceforge.net/DTD/sodipodi-0.dtd"
   xmlns:inkscape="http://www.inkscape.org/namespaces/inkscape"
   height="638.66669"
   viewBox="-31 0 415.24199 479.87408"
   width="553.65601"
   version="1.1"
   id="svg14"
   sodipodi:docname="water.svg"
   inkscape:version="0.92.3 (2405546, 2018-03-11)">
  <metadata
     id="metadata20">
    <rdf:RDF>
      <cc:Work
         rdf:about="">
        <dc:format>image/svg+xml</dc:format>
        <dc:type
           rdf:resource="http://purl.org/dc/dcmitype/StillImage" />
        <dc:title></dc:title>
      </cc:Work>
    </rdf:RDF>
  </metadata>
  <defs
     id="defs18" />
  <sodipodi:namedview
     pagecolor="#ffffff"
     bordercolor="#666666"
     borderopacity="1"
     objecttolerance="10"
     gridtolerance="10"
     guidetolerance="10"
     inkscape:pageopacity="0"
     inkscape:pageshadow="2"
     inkscape:window-width="1920"
     inkscape:window-height="1018"
     id="namedview16"
     showgrid="false"
     inkscape:zoom="0.36951983"
     inkscape:cx="319.33333"
     inkscape:cy="319.33333"
     inkscape:window-x="-8"
     inkscape:window-y="-8"
     inkscape:window-maximized="1"
     inkscape:current-layer="svg14"
     units="px" />
  <g
     id="g833"
     style="fill:#ffffff;fill-opacity:1"
     transform="translate(-31.816505,-4.6e-4)">
    <path
       id="path2"
       d="m 120.4375,335.875 c 77.38281,0 120,-45.45703 120,-128 C 240.4375,130.59375 131.04687,7.722656 126.39063,2.539062 124.83203,0.917969 122.68359,0 120.4375,0 118.19141,0 116.03906,0.917969 114.48438,2.539062 109.82813,7.722656 0.4375,130.59375 0.4375,207.875 c 0,82.54297 42.617188,128 120,128 z m 0,-315.792969 c 22.90234,26.878907 104,126.359379 104,187.792969 0,51.09375 -18.04688,112 -104,112 -85.953125,0 -104,-60.90625 -104,-112 0,-61.43359 81.09375,-160.914062 104,-187.792969 z m 0,0"
       style="fill:#ffffff;fill-opacity:1"
       inkscape:connector-curvature="0" />
    <path
       id="path4"
       d="m 344.4375,351.875 c 45.75781,0 72,-30.53516 72,-83.79297 0,-50.00781 -63.44922,-118.75 -66.14453,-121.65625 -1.54688,-1.5625 -3.65625,-2.4414 -5.85547,-2.4414 -2.19922,0 -4.30859,0.8789 -5.85547,2.4414 -2.69531,2.90625 -66.14453,71.64844 -66.14453,121.65625 0,53.25781 26.23828,83.79297 72,83.79297 z m 0,-187.92188 c 15.42969,17.95313 56,68.54688 56,104.12891 0,44.98438 -18.83984,67.79297 -56,67.79297 -37.16016,0 -56,-22.80859 -56,-67.79297 0,-35.58203 40.56641,-86.17578 56,-104.12891 z m 0,0"
       style="fill:#ffffff;fill-opacity:1"
       inkscape:connector-curvature="0" />
    <path
       id="path6"
       d="m 226.4375,322.57812 c -2.03906,2.3125 -50,57.08985 -50,93.29688 0,40.67187 20.41406,64 56,64 35.58203,0 56,-23.32813 56,-64 0,-36.20703 -47.96094,-90.98438 -50,-93.29688 -1.5625,-1.64843 -3.73047,-2.58203 -6,-2.58203 -2.26953,0 -4.44141,0.9336 -6,2.58203 z m 6,141.29688 c -26.53516,0 -40,-16.15234 -40,-48 0,-21.74609 25.03125,-57.14453 40,-75.58594 14.97656,18.40235 40,53.8086 40,75.58594 0,31.84766 -13.46484,48 -40,48 z m 0,0"
       style="fill:#ffffff;fill-opacity:1"
       inkscape:connector-curvature="0" />
    <path
       id="path8"
       d="m 103.63672,303.83594 c 0.26562,0.0273 0.53125,0.0391 0.80078,0.0391 4.26172,0 7.77734,-3.34375 7.99219,-7.60156 0.21094,-4.25782 -2.94922,-7.9336 -7.19141,-8.35938 C 88.527344,287.07422 72.972656,279.13281 62.492188,266.08984 41.214844,238.34766 48.261719,193.625 48.324219,193.17969 c 0.582031,-4.28516 -2.347657,-8.25781 -6.613281,-8.96875 -4.265626,-0.70703 -8.324219,2.10156 -9.160157,6.34375 -0.355469,2.11328 -8.289062,51.88672 17.191407,85.19922 13.109374,16.65234 32.734374,26.8789 53.894532,28.08203 z m 0,0"
       style="fill:#ffffff;fill-opacity:1"
       inkscape:connector-curvature="0" />
    <path
       id="path10"
       d="m 336.4375,319.875 c 14.76172,-0.21094 28.83594,-6.27344 39.12891,-16.85547 8.91015,-11.46094 12.13281,-26.34766 8.75781,-40.46484 -0.82031,-4.26563 -4.89063,-7.09766 -9.17578,-6.38281 -4.28516,0.71875 -7.21485,4.72265 -6.59766,9.02343 2.44922,9.44532 0.56641,19.4961 -5.13672,27.41407 -7.23828,7.03906 -16.88281,11.0664 -26.97656,11.26562 -4.41797,0 -8,3.58203 -8,8 0,4.41797 3.58203,8 8,8 z m 0,0"
       style="fill:#ffffff;fill-opacity:1"
       inkscape:connector-curvature="0" />
    <path
       id="path12"
       d="m 228.01172,432.71484 c -2.4961,-1.00781 -4.42188,-3.05859 -5.27344,-5.61328 -0.84766,-2.55078 -0.53516,-5.35156 0.85938,-7.65234 1.97265,-3.95313 0.37109,-8.76172 -3.58594,-10.73438 -3.95313,-1.97656 -8.75781,-0.37109 -10.73438,3.58203 -3.28906,6.10938 -3.91015,13.3086 -1.71875,19.89063 2.19532,6.58203 7.00782,11.96875 13.30078,14.88672 3.95704,1.97656 8.76172,0.37109 10.73829,-3.58594 1.97265,-3.95312 0.37109,-8.75781 -3.58594,-10.73437 z m 0,0"
       style="fill:#ffffff;fill-opacity:1"
       inkscape:connector-curvature="0" />
  </g>
</svg>
